<svg width="62" height="60" viewBox="0 0 62 60" fill="none" xmlns="http://www.w3.org/2000/svg">
<path d="M55.7375 44.8735L55.2839 59.6143H12.9909L9.22138 53.5803L1.18835 47.2313C-0.681475 45.756 -0.302201 44.1208 2.02654 43.5996L42.1652 34.6143L53.5946 43.6466L54.6054 45.1275L55.7375 44.8735Z" fill="black"/>
<path d="M11.9438 48.6143L56.313 38.6163L56.3116 38.6143L56.3136 38.6161L56.313 38.6163L61.7095 46.6143V53.9357C61.7095 57.2494 59.0232 59.9357 55.7095 59.9357H18.7541L11.9438 48.6143Z" fill="white"/>
<path d="M56.3949 38.83C56.4878 38.7957 56.5953 38.816 56.6698 38.8892L56.6717 38.891C56.6886 38.9076 56.703 38.9262 56.7147 38.9462L61.9998 46.7776V47.7223L56.37 39.3803L12.5116 49.3084L19.6745 59.9223H19.0369L11.8577 49.2842C11.8086 49.2115 11.7984 49.1189 11.8305 49.0371C11.8625 48.9553 11.9327 48.8948 12.0179 48.8755L56.3949 38.83Z" fill="black"/>
<path d="M54.9876 42.6623L31.3597 48.0836L30.6387 46.9993L54.2666 41.578L54.9876 42.6623Z" fill="black"/>
<path d="M17.6474 49.3861C17.6607 48.1745 17.2319 46.5249 16.6912 45.705C16.1485 44.885 15.6988 45.2034 15.6855 46.415V48.9713L17.6474 51.9173V49.3841V49.3861Z" fill="white" stroke="black" stroke-width="0.535561" stroke-linecap="round" stroke-linejoin="round"/>
<path d="M17.6472 49.3858C17.6605 48.1743 17.2317 46.5247 16.6909 45.7047C16.4633 45.3613 16.2526 45.2205 16.0838 45.2591L12.7539 46.0212L14.3192 52.683L17.6491 51.919V49.3858H17.6472Z" fill="white"/>
<path fill-rule="evenodd" clip-rule="evenodd" d="M16.4712 45.1845C16.5986 45.2758 16.7229 45.4171 16.8436 45.5991C17.13 46.0334 17.3792 46.6735 17.555 47.3501C17.7287 48.0187 17.8353 48.7398 17.8318 49.3603C17.8329 49.3687 17.8335 49.3772 17.8335 49.3859V51.919C17.8335 52.0072 17.7736 52.0835 17.6894 52.1028L14.3596 52.8668C14.2612 52.8894 14.1633 52.8271 14.1398 52.727L12.5744 46.0652C12.5629 46.0161 12.5711 45.9643 12.5973 45.9215C12.6234 45.8787 12.6653 45.8484 12.7135 45.8373L16.0433 45.0752C16.1956 45.0404 16.3433 45.0928 16.4712 45.1845ZM17.4645 49.4128V51.7682L14.4561 52.4585L12.9769 46.1632L16.1239 45.4429C16.1239 45.443 16.1239 45.4429 16.1239 45.4429C16.1406 45.4391 16.1826 45.438 16.2592 45.4929C16.3362 45.5481 16.431 45.6489 16.5379 45.8102C16.7922 46.1958 17.028 46.7908 17.1984 47.4468C17.3684 48.1009 17.4691 48.7989 17.4627 49.3838C17.4625 49.3935 17.4632 49.4033 17.4645 49.4128Z" fill="black"/>
<path d="M14.3198 50.1499V52.683L19.1931 60H14.9385L12.3579 56.1249V47.1788C12.3712 45.9672 12.8209 45.6488 13.3635 46.4688C13.9043 47.2887 14.3331 48.9383 14.3198 50.1499Z" fill="#E9EAEB"/>
<path d="M13.3465 47.7747C13.5666 48.1066 13.7392 48.7761 13.7354 49.268C13.7316 49.76 13.5476 49.8892 13.3275 49.5555C13.1074 49.2236 12.9347 48.5542 12.9385 48.0622C12.9442 47.5703 13.1264 47.441 13.3465 47.7728V47.7747Z" fill="#777E87"/>
<path d="M29.252 51.5698C33.7867 51.5698 37.4903 53.6612 37.7142 56.2908C37.7218 56.2078 37.7256 56.1229 37.7256 56.038C37.7256 53.2907 33.9328 51.0643 29.252 51.0643C24.5712 51.0643 20.7783 53.2907 20.7783 56.038C20.7783 56.1229 20.7821 56.2078 20.7897 56.2908C21.0136 53.6612 24.7173 51.5698 29.252 51.5698Z" fill="#C2C8CF" stroke="black" stroke-width="0.535561" stroke-linecap="round" stroke-linejoin="round"/>
<path d="M29.2513 51.5695C33.786 51.5695 37.4897 53.6609 37.7136 56.2905C37.5885 57.7592 36.3779 59.06 34.5433 59.9223H23.9593C22.1247 59.06 20.9141 57.7592 20.7891 56.2905C21.013 53.6609 24.7166 51.5695 29.2513 51.5695Z" fill="#C2C8CF"/>
<path d="M23.3153 52.8001C24.8675 51.9176 26.9586 51.3811 29.2517 51.3811C31.5448 51.3811 33.6359 51.9176 35.1881 52.8001C36.7351 53.6796 37.7782 54.9235 37.8977 56.349C37.8986 56.3601 37.8986 56.3712 37.8977 56.3822C37.7782 57.8077 36.7351 59.0516 35.188 59.9311H34.5596C36.0474 59.0853 37.4177 57.6036 37.5287 56.3656C37.4177 55.1277 36.4985 53.9814 35.0107 53.1356C33.5214 52.2889 31.4933 51.7637 29.2517 51.7637C27.0101 51.7637 24.982 52.2889 23.4927 53.1356C22.0049 53.9814 21.0857 55.1277 20.9746 56.3656C21.0857 57.6036 22.4567 59.0853 23.9444 59.9311H23.3153C21.7683 59.0516 20.7252 57.8077 20.6057 56.3822C20.6047 56.3712 20.6047 56.3601 20.6057 56.349C20.7252 54.9235 21.7683 53.6796 23.3153 52.8001Z" fill="black"/>
<path d="M34.9334 55.191L34.072 53.8985C33.8842 53.6149 33.3396 53.474 32.8596 53.5839L30.1388 54.2071L29.0933 52.6386C28.9055 52.355 28.3609 52.2142 27.8809 52.3241L26.1164 52.7293C25.6363 52.8393 25.3992 53.1595 25.587 53.4431L26.6324 55.0117L23.9116 55.6348C23.4316 55.7448 23.1944 56.065 23.3823 56.3486L24.2437 57.6413C24.4315 57.9249 24.976 58.0657 25.4561 57.9557L28.1769 57.3326L29.2223 58.9011C29.4102 59.1847 29.9547 59.3255 30.4348 59.2155L32.1993 58.8104C32.6793 58.7005 32.9165 58.3802 32.7287 58.0966L31.6832 56.5281L34.4041 55.9049C34.8841 55.7949 35.1213 55.4746 34.9334 55.191Z" fill="black" stroke="black" stroke-width="0.535561" stroke-linecap="round" stroke-linejoin="round"/>
<path d="M29.108 56.1733C29.4915 56.1733 29.8024 55.9909 29.8024 55.7661C29.8024 55.5413 29.4915 55.3591 29.108 55.3591C28.7245 55.3591 28.4136 55.5413 28.4136 55.7661C28.4136 55.9909 28.7245 56.1733 29.108 56.1733Z" fill="#F2635E"/>
<path d="M29.8027 57.8883L30.9981 57.6143L30.8178 58.3455L29.8027 57.8883Z" fill="white"/>
<path d="M28.4131 53.6555L27.2158 53.9294L27.3961 53.1963L28.4131 53.6555Z" fill="white"/>
<path d="M25.6512 56.0147L26.2773 56.9562L25.0137 56.6804L25.6512 56.0147Z" fill="white"/>
<path d="M32.6847 55.4555L32.0566 54.5159L33.3222 54.7898L32.6847 55.4555Z" fill="white"/>
<path d="M58.6041 49.0617C58.6041 47.9562 57.0767 47.0591 55.1945 47.0591C53.7032 47.0591 52.4396 47.6205 51.9766 48.4038H51.9728L49.973 51.7781H49.9768C49.8554 51.9846 49.7852 52.2065 49.7852 52.436C49.7852 53.5415 51.3125 54.4386 53.1947 54.4386C54.6861 54.4386 55.9497 53.8772 56.4127 53.0939H56.4165L58.4163 49.7196H58.4125C58.5339 49.5131 58.6041 49.2913 58.6041 49.0617Z" fill="#C2C8CF" stroke="black" stroke-width="0.374893" stroke-linecap="round" stroke-linejoin="round"/>
<path d="M57.4394 48.205C57.4394 47.4776 56.4338 46.8872 55.1948 46.8872C53.9558 46.8872 52.9502 47.4776 52.9502 48.205V49.0597C52.9502 49.787 53.9558 50.3774 55.1948 50.3774C56.4338 50.3774 57.4394 49.787 57.4394 49.0597V48.205Z" fill="#777E87"/>
<path d="M52.9482 48.205V49.0597C52.9482 49.787 53.9538 50.3774 55.1928 50.3774V48.2031H52.9482V48.205Z" fill="black"/>
<path d="M55.1928 49.5227C56.4325 49.5227 57.4374 48.9327 57.4374 48.205C57.4374 47.4772 56.4325 46.8872 55.1928 46.8872C53.9532 46.8872 52.9482 47.4772 52.9482 48.205C52.9482 48.9327 53.9532 49.5227 55.1928 49.5227Z" fill="#C23631"/>
<path fill-rule="evenodd" clip-rule="evenodd" d="M53.5129 47.1117C53.9527 46.8535 54.5478 46.6998 55.1947 46.6998C55.8417 46.6998 56.4368 46.8535 56.8765 47.1117C57.3118 47.3673 57.6268 47.7475 57.6268 48.205V49.0597C57.6268 49.5172 57.3118 49.8974 56.8765 50.1529C56.4368 50.4111 55.8417 50.5648 55.1947 50.5648C54.5478 50.5648 53.9527 50.4111 53.5129 50.1529C53.0776 49.8974 52.7627 49.5172 52.7627 49.0597V48.205C52.7627 47.7475 53.0776 47.3673 53.5129 47.1117ZM53.7027 47.435C53.3255 47.6565 53.1376 47.9351 53.1376 48.205V49.0597C53.1376 49.3295 53.3255 49.6082 53.7027 49.8296C54.0755 50.0485 54.6027 50.19 55.1947 50.19C55.7868 50.19 56.3139 50.0485 56.6867 49.8296C57.064 49.6082 57.2519 49.3295 57.2519 49.0597V48.205C57.2519 47.9351 57.064 47.6565 56.6867 47.435C56.3139 47.2161 55.7868 47.0747 55.1947 47.0747C54.6027 47.0747 54.0755 47.2161 53.7027 47.435Z" fill="black"/>
<path d="M55.4379 51.6968C55.4379 50.9695 54.4323 50.3791 53.1933 50.3791C51.9543 50.3791 50.9487 50.9695 50.9487 51.6968V52.5515C50.9487 53.2789 51.9543 53.8692 53.1933 53.8692C54.4323 53.8692 55.4379 53.2789 55.4379 52.5515V51.6968Z" fill="#777E87"/>
<path d="M50.9487 51.697V52.5517C50.9487 53.279 51.9543 53.8693 53.1933 53.8693V51.695H50.9487V51.697Z" fill="black"/>
<path d="M53.1933 53.0145C54.433 53.0145 55.4379 52.4246 55.4379 51.6968C55.4379 50.9691 54.433 50.3791 53.1933 50.3791C51.9537 50.3791 50.9487 50.9691 50.9487 51.6968C50.9487 52.4246 51.9537 53.0145 53.1933 53.0145Z" fill="black"/>
<path fill-rule="evenodd" clip-rule="evenodd" d="M51.5115 50.6036C51.9512 50.3454 52.5463 50.1917 53.1933 50.1917C53.8402 50.1917 54.4353 50.3454 54.8751 50.6036C55.3104 50.8591 55.6253 51.2393 55.6253 51.6968V52.5515C55.6253 53.009 55.3104 53.3892 54.8751 53.6448C54.4353 53.9029 53.8402 54.0566 53.1933 54.0566C52.5463 54.0566 51.9512 53.9029 51.5115 53.6447C51.0762 53.3892 50.7612 53.009 50.7612 52.5515V51.6968C50.7612 51.2393 51.0762 50.8591 51.5115 50.6036ZM51.7012 50.9269C51.324 51.1483 51.1361 51.427 51.1361 51.6968V52.5515C51.1361 52.8214 51.324 53.1 51.7012 53.3214C52.074 53.5403 52.6012 53.6817 53.1933 53.6817C53.7853 53.6817 54.3125 53.5403 54.6853 53.3214C55.0625 53.1 55.2504 52.8214 55.2504 52.5515V51.6968C55.2504 51.427 55.0625 51.1483 54.6853 50.9269C54.3125 50.708 53.7853 50.5665 53.1933 50.5665C52.6012 50.5665 52.0741 50.708 51.7012 50.9269Z" fill="black"/>
<path d="M49.4894 59.4837C49.7797 59.4837 50.015 59.3454 50.015 59.1749C50.015 59.0045 49.7797 58.8663 49.4894 58.8663C49.1992 58.8663 48.9639 59.0045 48.9639 59.1749C48.9639 59.3454 49.1992 59.4837 49.4894 59.4837Z" fill="black"/>
<path d="M52.4416 58.6021C52.539 58.6021 52.618 58.5554 52.618 58.4979C52.618 58.4403 52.539 58.3937 52.4416 58.3937C52.3441 58.3937 52.2651 58.4403 52.2651 58.4979C52.2651 58.5554 52.3441 58.6021 52.4416 58.6021Z" fill="black"/>
<path d="M58.3425 57.2477C58.4399 57.2477 58.5189 57.201 58.5189 57.1435C58.5189 57.086 58.4399 57.0393 58.3425 57.0393C58.245 57.0393 58.166 57.086 58.166 57.1435C58.166 57.201 58.245 57.2477 58.3425 57.2477Z" fill="black"/>
<path d="M61.2951 56.5723C61.3926 56.5723 61.4716 56.5257 61.4716 56.4681C61.4716 56.4106 61.3926 56.364 61.2951 56.364C61.1977 56.364 61.1187 56.4106 61.1187 56.4681C61.1187 56.5257 61.1977 56.5723 61.2951 56.5723Z" fill="black"/>
<path d="M56.5876 59.7213C56.685 59.7213 56.764 59.6747 56.764 59.6171C56.764 59.5596 56.685 59.5129 56.5876 59.5129C56.4901 59.5129 56.4111 59.5596 56.4111 59.6171C56.4111 59.6747 56.4901 59.7213 56.5876 59.7213Z" fill="black"/>
<path d="M55.3913 57.9247C55.4888 57.9247 55.5678 57.878 55.5678 57.8205C55.5678 57.7629 55.4888 57.7164 55.3913 57.7164C55.2938 57.7164 55.2148 57.7629 55.2148 57.8205C55.2148 57.878 55.2938 57.9247 55.3913 57.9247Z" fill="black"/>
<path fill-rule="evenodd" clip-rule="evenodd" d="M13.0685 45.9C13.2244 45.9874 13.3741 46.1496 13.5167 46.365C13.8031 46.7993 14.0523 47.4393 14.2281 48.1159C14.4043 48.794 14.5114 49.5261 14.5046 50.1526V52.6268L19.193 59.9223H18.701L14.1357 52.7428V50.1495C14.1421 49.5646 14.0415 48.8666 13.8715 48.2125C13.701 47.5565 13.4653 46.9616 13.211 46.5759C13.0823 46.3815 12.9723 46.276 12.8909 46.2304C12.8195 46.1903 12.7889 46.2035 12.7675 46.2186C12.7285 46.2462 12.6701 46.3234 12.6221 46.4949C12.5756 46.6606 12.546 46.8893 12.5428 47.1815V56.0686L14.5777 59.7104L14.2727 59.9223L12.1738 56.1846V47.1784C12.1773 46.8653 12.2088 46.6002 12.2674 46.3913C12.3243 46.188 12.4147 46.0097 12.5576 45.9087C12.7182 45.7953 12.9026 45.807 13.0685 45.9Z" fill="black"/>
<path d="M30.7751 42.475C30.5474 42.1316 30.3368 41.9907 30.1679 42.0293L12.7539 46.021C13.0138 45.9631 13.2036 46.2236 13.363 46.4706L30.7846 42.4885C30.7846 42.4885 30.7789 42.4789 30.777 42.475H30.7751Z" fill="black"/>
<path d="M11.87 58.938L15.8468 58.585C16.1144 58.5233 16.2035 57.8963 16.0442 57.1824C15.8867 56.4686 15.5414 55.9419 15.2738 56.0017L11.5322 57.4197L11.87 58.938Z" fill="#777E87" stroke="black" stroke-width="0.535561" stroke-miterlimit="10" stroke-linecap="round"/>
<path d="M15.6475 57.2843C15.5678 56.9274 15.4426 56.5995 15.2927 56.366C15.2073 56.2329 15.1257 56.1441 15.0517 56.0881L14.6855 56.2271C14.7159 56.258 14.7595 56.2734 14.8032 56.2637C14.8525 56.2522 14.9607 56.3235 15.0764 56.5088C15.2092 56.719 15.3231 57.0142 15.3952 57.3422C15.5602 58.0907 15.4293 58.548 15.3155 58.575C15.2775 58.5827 15.2491 58.6078 15.232 58.6406L15.6228 58.6059C15.767 58.3127 15.7576 57.7859 15.6475 57.2843Z" fill="black"/>
<path d="M15.0349 57.4194C14.9628 57.0915 14.847 56.7904 14.7104 56.5705C14.7066 56.5647 14.7028 56.557 14.699 56.5513C14.625 56.4336 14.5529 56.3545 14.4846 56.3024L14.1279 56.4374C14.1526 56.4567 14.1811 56.4663 14.2133 56.4644C14.2456 56.4644 14.2968 56.4876 14.3594 56.5397C14.3936 56.5705 14.4334 56.6168 14.4751 56.6824C14.5985 56.8695 14.7085 57.1455 14.7806 57.4638C14.7863 57.4927 14.7939 57.5216 14.7996 57.5506C14.9286 58.1988 14.8148 58.5982 14.7161 58.6252C14.6782 58.6349 14.6478 58.6599 14.6307 58.6947L15.0159 58.6599C15.1487 58.3802 15.1392 57.8863 15.0368 57.4213L15.0349 57.4194Z" fill="black"/>
<path d="M14.4218 57.5541C14.3535 57.2454 14.2453 56.9617 14.1163 56.7553C14.1125 56.7495 14.1087 56.7438 14.1049 56.7361C14.0404 56.6338 13.9759 56.5643 13.9171 56.5161L13.5718 56.6473C13.587 56.657 13.604 56.6646 13.623 56.6666C13.6553 56.6704 13.7046 56.6956 13.7615 56.7322C13.7919 56.7554 13.8317 56.7977 13.8735 56.8595C13.9854 57.0254 14.0936 57.2801 14.1638 57.5868C14.1694 57.6138 14.1751 57.6409 14.1808 57.6679C14.3042 58.2718 14.1998 58.648 14.1106 58.675C14.0708 58.6846 14.0404 58.7117 14.0252 58.7464L14.4047 58.7136C14.528 58.4474 14.5167 57.9882 14.4218 57.556V57.5541Z" fill="black"/>
<path d="M13.8092 57.6913C13.7446 57.402 13.6422 57.1357 13.5227 56.9428C13.5189 56.937 13.5151 56.9313 13.5113 56.9255C13.4562 56.8387 13.4012 56.7788 13.35 56.7325L13.0142 56.8598C13.0142 56.8598 13.0274 56.8676 13.0331 56.8695C13.0654 56.8811 13.1109 56.9023 13.1641 56.9235C13.1906 56.9389 13.2305 56.9756 13.2722 57.0374C13.3728 57.1802 13.4771 57.4136 13.5492 57.7126C13.5549 57.7377 13.5606 57.7627 13.5663 57.7878C13.6839 58.3473 13.5891 58.7004 13.5113 58.7274C13.4695 58.737 13.4392 58.766 13.424 58.8027L13.7978 58.7699C13.9097 58.5191 13.8983 58.0908 13.8111 57.6933L13.8092 57.6913Z" fill="black"/>
<path d="M13.1981 57.8265C13.1374 57.5545 13.0425 57.3075 12.9287 57.1281C12.9249 57.1223 12.9211 57.1166 12.9173 57.1108C12.8718 57.0394 12.8262 56.9873 12.7826 56.9468L12.4468 57.0741C12.4771 57.0934 12.5189 57.1089 12.5644 57.1146C12.5891 57.1224 12.627 57.1551 12.6688 57.213C12.7579 57.3345 12.8604 57.5468 12.9306 57.8343C12.9363 57.8574 12.942 57.8805 12.9458 57.9037C13.0558 58.4188 12.9723 58.7487 12.9059 58.7757C12.8642 58.7854 12.8338 58.8163 12.8168 58.8549L13.1849 58.8221C13.2873 58.5848 13.274 58.1911 13.1943 57.8284L13.1981 57.8265Z" fill="black"/>
<path d="M12.5852 57.9614C12.5301 57.7086 12.441 57.4791 12.3347 57.3132C12.2949 57.2495 12.255 57.1993 12.2152 57.1607L11.8774 57.2881C11.904 57.3035 11.9363 57.3113 11.9685 57.3035C12.0292 57.3035 12.2266 57.5486 12.3328 58.0193C12.4372 58.4901 12.3632 58.7949 12.3062 58.8238C12.2626 58.8335 12.2322 58.8663 12.2171 58.9068L12.5776 58.874C12.6705 58.6522 12.6573 58.2913 12.5833 57.9614H12.5852Z" fill="black"/>
<path d="M11.769 58.963C11.9264 58.9269 11.9787 58.5581 11.8858 58.1392C11.7929 57.7203 11.5899 57.41 11.4325 57.4461C11.2751 57.4822 11.2228 57.8511 11.3157 58.2699C11.4086 58.6888 11.6115 58.9991 11.769 58.963Z" fill="black" stroke="black" stroke-width="0.535561" stroke-miterlimit="10" stroke-linecap="round"/>
<path d="M12.3902 58.3797L11.8892 58.4415L11.9203 58.7021L12.4213 58.6402L12.3902 58.3797Z" fill="black"/>
<path d="M13.7035 58.2212L13.0591 58.2982L13.0892 58.5588L13.7337 58.4818L13.7035 58.2212Z" fill="black"/>
<path d="M14.9521 58.0723L14.3228 58.1475L14.3529 58.4081L14.9822 58.3329L14.9521 58.0723Z" fill="black"/>
<path d="M16.0536 57.9405L15.543 58.0015L15.5731 58.2621L16.0837 58.2011L16.0536 57.9405Z" fill="black"/>
<path d="M31.7325 46.1544C31.7458 44.9428 31.317 43.2933 30.7762 42.4733C30.5485 42.1299 30.3379 41.9891 30.1691 42.0277L16.0849 45.2573L17.6502 51.9191L31.7344 48.6876V46.1544H31.7325Z" fill="white"/>
<path fill-rule="evenodd" clip-rule="evenodd" d="M30.5566 41.953C30.684 42.0444 30.8083 42.1857 30.929 42.3677C31.2154 42.802 31.4646 43.4421 31.6404 44.1187C31.8141 44.7873 31.9207 45.5083 31.9172 46.1289C31.9183 46.1373 31.9189 46.1458 31.9189 46.1544V48.6876C31.9189 48.7757 31.859 48.8521 31.7748 48.8714L17.6907 52.103C17.5923 52.1255 17.4944 52.0633 17.4709 51.9631L15.9055 45.3013C15.894 45.2522 15.9022 45.2005 15.9284 45.1577C15.9545 45.1149 15.9963 45.0845 16.0445 45.0735L30.1287 41.8438C30.2809 41.809 30.4287 41.8613 30.5566 41.953ZM31.5499 46.1814C31.5486 46.1718 31.5479 46.1621 31.548 46.1523C31.5545 45.5675 31.4538 44.8695 31.2838 44.2153C31.1134 43.5593 30.8776 42.9644 30.6233 42.5788C30.5164 42.4175 30.4216 42.3167 30.3446 42.2614C30.2682 42.2066 30.2262 42.2077 30.2094 42.2115L16.308 45.3993L17.7872 51.6946L31.5499 48.5368V46.1814Z" fill="black"/>
<path d="M58.7168 39.9651C58.7301 38.7536 58.3013 37.104 57.7606 36.284C57.5329 35.9406 57.3223 35.7998 57.1534 35.8384L53.8235 36.6005L55.3889 43.2623L58.7187 42.4983V39.9651H58.7168Z" fill="white"/>
<path fill-rule="evenodd" clip-rule="evenodd" d="M57.5409 35.7638C57.6683 35.8551 57.7926 35.9964 57.9133 36.1784C58.1997 36.6127 58.449 37.2528 58.6248 37.9294C58.7985 38.598 58.905 39.3191 58.9015 39.9396C58.9026 39.948 58.9032 39.9565 58.9032 39.9651V42.4983C58.9032 42.5864 58.8434 42.6628 58.7592 42.6821L55.4293 43.4461C55.3309 43.4687 55.233 43.4064 55.2095 43.3063L53.6442 36.6444C53.6326 36.5954 53.6409 36.5436 53.667 36.5008C53.6931 36.458 53.735 36.4277 53.7832 36.4166L57.1131 35.6545C57.2653 35.6197 57.4131 35.672 57.5409 35.7638ZM58.5343 39.9921V42.3475L55.5258 43.0378L54.0466 36.7425L57.1937 36.0222C57.2104 36.0184 57.2524 36.0173 57.3289 36.0722C57.4059 36.1274 57.5007 36.2282 57.6077 36.3895C57.862 36.7751 58.0977 37.3701 58.2682 38.0261C58.4381 38.6802 58.5388 39.3782 58.5324 39.963C58.5323 39.9728 58.5329 39.9825 58.5343 39.9921Z" fill="black"/>
<path d="M55.3862 40.7293C55.3995 39.5177 54.9707 37.8682 54.4299 37.0482C53.8873 36.2283 53.4376 36.5466 53.4243 37.7582V40.3145L55.3862 43.2606V40.7274V40.7293Z" fill="white" stroke="black" stroke-width="0.535561" stroke-linecap="round" stroke-linejoin="round"/>
<path d="M54.4148 38.3523C54.6349 38.6842 54.8076 39.3536 54.8038 39.8456C54.7981 40.3375 54.6159 40.4668 54.3959 40.1331C54.1758 39.7993 54.0031 39.1317 54.0069 38.6398C54.0126 38.1478 54.1947 38.0185 54.4148 38.3504V38.3523Z" fill="#777E87"/>
<path d="M57.7598 36.2857C57.5321 35.9423 57.3215 35.8015 57.1526 35.8401L53.8228 36.5982C54.1586 36.5924 54.3256 36.8336 54.4318 37.0477L57.7693 36.2992C57.7693 36.2992 57.7636 36.2896 57.7617 36.2857H57.7598Z" fill="black"/>
<path d="M8.44283 8.76266L43.7834 0.657707C46.2987 0.080844 48.8026 1.68807 49.3703 4.24761L56.4156 36.0104L11.9595 46.2059L4.91416 14.4431C4.34685 11.8854 5.9275 9.33952 8.44469 8.76223L8.44283 8.76266Z" fill="white"/>
<path fill-rule="evenodd" clip-rule="evenodd" d="M8.48545 8.94599C6.06701 9.50063 4.54948 11.9463 5.09414 14.4018L12.0987 45.9809L56.1949 35.8679L49.1903 4.28889C48.6452 1.83158 46.2408 0.287228 43.8242 0.841464L8.48545 8.94599ZM8.40207 8.5789C8.40269 8.57876 8.40331 8.57862 8.40393 8.57847L43.7426 0.473949C46.3566 -0.12554 48.9599 1.54455 49.5503 4.20633L56.5956 35.9692C56.6181 36.0706 56.5558 36.1714 56.4564 36.1942L12.0003 46.3897C11.9009 46.4125 11.802 46.3487 11.7795 46.2472L4.73418 14.4844C4.14438 11.8254 5.78747 9.17986 8.40207 8.5789C8.40222 8.57886 8.40193 8.57893 8.40207 8.5789Z" fill="black"/>
<path d="M54.6043 36.4191L57.9323 35.6551L50.8855 3.89308C50.32 1.34449 47.806 -0.270257 45.2996 0.304672L9.95928 8.41156C7.45286 8.98649 5.86476 11.5428 6.43018 14.0914L13.477 45.8533L30.9498 41.8443L31.4849 44.252C31.6443 44.8926 31.7334 45.5736 31.7334 46.1543V47.9245L54.8547 42.6209C55.1697 42.5495 55.3879 41.5491 55.3879 40.7291C55.3879 40.1484 55.3006 39.4693 55.1394 38.8287L54.6043 36.421V36.4191Z" fill="white"/>
<path fill-rule="evenodd" clip-rule="evenodd" d="M45.2592 0.120836C47.8642 -0.476697 50.4773 1.20076 51.0654 3.85144L58.1122 35.6135C58.123 35.6623 58.1144 35.7134 58.0882 35.7557C58.0621 35.798 58.0205 35.828 57.9727 35.8389L54.8247 36.5616L55.3186 38.7843C55.483 39.4379 55.5724 40.1318 55.5724 40.7291C55.5724 41.1536 55.5162 41.6251 55.4177 42.004C55.3687 42.1928 55.307 42.3672 55.2314 42.5034C55.1613 42.6296 55.0544 42.7684 54.8952 42.8047M54.8952 42.8047L31.7739 48.1084C31.7192 48.1209 31.6619 48.1074 31.6182 48.0716C31.5744 48.0359 31.549 47.9818 31.549 47.9245V46.1543C31.549 45.5913 31.4622 44.9259 31.3061 44.2985L31.3049 44.2938L30.8107 42.0693L13.5174 46.0372C13.4182 46.0599 13.3196 45.9963 13.2971 45.895L6.25028 14.133C5.66217 11.4821 7.31357 8.82534 9.91886 8.22773L45.2592 0.120836M50.7056 3.93472C50.1628 1.48821 47.7479 -0.0638167 45.34 0.488509L9.9997 8.5954C7.59214 9.14765 6.06736 11.6035 6.61008 14.0498L13.6162 45.6283L30.9094 41.6605C31.0086 41.6377 31.1072 41.7013 31.1297 41.8026L31.6643 44.208C31.8265 44.8609 31.9179 45.5566 31.9179 46.1543V47.6891L54.8143 42.437C54.8124 42.4375 54.8511 42.4245 54.9105 42.3175C54.9644 42.2204 55.0163 42.0801 55.0611 41.9074C55.1505 41.5633 55.2034 41.1246 55.2034 40.7291C55.2034 40.1658 55.1185 39.5025 54.9607 38.8757L54.9594 38.8705L54.4244 36.4627C54.4214 36.449 54.4198 36.435 54.4198 36.421V36.4191C54.4198 36.331 54.4797 36.2546 54.5638 36.2353L57.7115 35.5127L50.7056 3.93472Z" fill="black"/>
<path d="M46.7832 2.88681L9.51143 11.4346C8.90252 11.5743 8.52022 12.1894 8.65756 12.8086L15.0516 41.6349C15.1889 42.2541 15.7938 42.6428 16.4027 42.5031L53.6745 33.9553C54.2834 33.8156 54.6657 33.2005 54.5284 32.5814L48.1344 3.75501C47.997 3.13585 47.3921 2.74716 46.7832 2.88681Z" fill="white"/>
<path fill-rule="evenodd" clip-rule="evenodd" d="M9.55218 11.6184C9.04198 11.7354 8.72287 12.2503 8.83754 12.7673L15.2315 41.5936C15.3462 42.1106 15.8518 42.4364 16.362 42.3194L53.6337 33.7715C54.1439 33.6545 54.463 33.1396 54.3484 32.6226L47.9544 3.79628C47.8397 3.27933 47.3341 2.95355 46.8239 3.07056L9.55218 11.6184ZM8.47758 12.8498C8.31757 12.1285 8.76306 11.4132 9.47067 11.2509L46.7424 2.70305C47.45 2.54077 48.1543 2.99237 48.3143 3.71373L54.7083 32.5401C54.8683 33.2614 54.4229 33.9768 53.7152 34.139L16.4435 42.6869C15.7359 42.8492 15.0316 42.3975 14.8716 41.6762L8.47758 12.8498Z" fill="black"/>
<path d="M18.316 30.8443L16.4216 22.2741C16.293 21.6927 16.6514 21.1153 17.2211 20.986L51.5928 13.1834C52.1598 13.0547 52.7218 13.4187 52.8497 13.9973L54.7441 22.5675C54.8727 23.1489 54.5143 23.7263 53.9446 23.8556L19.5729 31.6582C19.0059 31.7869 18.4439 31.4229 18.316 30.8443Z" fill="#B8A9A9"/>
<path fill-rule="evenodd" clip-rule="evenodd" d="M51.5528 12.9995C52.2189 12.8483 52.8793 13.2759 53.0296 13.9558L54.9241 22.526C55.0751 23.2091 54.654 23.8876 53.9846 24.0395L19.6129 31.8421C18.9467 31.9933 18.2864 31.5657 18.1361 30.8858L16.2416 22.3156C16.0906 21.6325 16.5117 20.954 17.181 20.8021L51.5528 12.9995ZM52.6698 14.0388C52.5642 13.5614 52.1006 13.2612 51.6328 13.3674L17.2611 21.1699C16.7911 21.2766 16.4955 21.753 16.6015 22.2326L18.4959 30.8028C18.6015 31.2802 19.0651 31.5804 19.5328 31.4742L53.9046 23.6717C54.3746 23.565 54.6702 23.0886 54.5642 22.609L52.6698 14.0388Z" fill="black"/>
<path d="M20.1394 27.6614L17.4881 16.4169C17.3501 15.8316 17.7088 15.2444 18.2842 15.1138L52.6556 7.3113C53.2168 7.1839 53.7745 7.53933 53.9091 8.11022L56.5604 19.3547C56.6984 19.94 56.3397 20.5272 55.7643 20.6578L21.3928 28.4603C20.8316 28.5877 20.274 28.2323 20.1394 27.6614Z" fill="white"/>
<path fill-rule="evenodd" clip-rule="evenodd" d="M52.6156 7.12737C53.275 6.97768 53.9302 7.39531 54.0884 8.0661L56.7397 19.3106C56.9019 19.9983 56.4804 20.6883 55.8043 20.8417L21.4329 28.6442C20.7735 28.7939 20.1182 28.3763 19.9601 27.7055L17.3088 16.461C17.1466 15.7733 17.5681 15.0833 18.2442 14.9299L52.6156 7.12737ZM53.7297 8.15433C53.6187 7.68335 53.1586 7.39013 52.6956 7.49523L18.3242 15.2977C17.8495 15.4055 17.5536 15.8899 17.6674 16.3728L20.3187 27.6173C20.4298 28.0882 20.8898 28.3815 21.3528 28.2764L55.7243 20.4739C56.199 20.3661 56.4949 19.8817 56.3811 19.3988L53.7297 8.15433Z" fill="black"/>
<path d="M20.38 18.5328L21.1668 22.0524L42.4019 17.2649L41.6098 13.7509L20.38 18.5328Z" fill="#B8A9A9"/>
<path d="M25.7133 21.8214L24.744 17.6777C24.6477 17.2659 24.8796 16.8482 25.2801 16.7124C25.7429 16.5553 26.2396 16.8345 26.3461 17.3115L27.2735 21.4647C27.3734 21.9119 27.0781 22.3515 26.6263 22.4281C26.2095 22.4988 25.8096 22.2331 25.7133 21.8214Z" fill="white"/>
<path d="M59.9558 20.1532C59.1171 20.3667 57.2476 18.9973 56.5487 18.2859L56.2866 18.8194L58.9075 20.9535L59.9558 20.1532Z" fill="black"/>
<ellipse cx="51.6061" cy="16.4556" rx="5.01627" ry="5.10586" fill="black"/>
<path d="M55.6298 18.3889C55.3855 18.1797 55.335 17.8166 55.5126 17.546C55.6902 17.2754 56.039 17.1839 56.3224 17.3335L59.3489 18.9311C59.8802 19.2116 60.0537 19.9003 59.7208 20.4074C59.3879 20.9146 58.6965 21.0152 58.2385 20.623L55.6298 18.3889Z" fill="white"/>
<path fill-rule="evenodd" clip-rule="evenodd" d="M55.5108 18.533C55.1945 18.2621 55.1291 17.792 55.359 17.4416C55.589 17.0913 56.0406 16.9727 56.4076 17.1665L59.4341 18.7641C60.0631 19.0961 60.2684 19.9114 59.8743 20.5119C59.4803 21.1123 58.6617 21.2314 58.1195 20.7671L55.5108 18.533ZM59.5672 20.303C59.8389 19.8891 59.6973 19.327 59.2638 19.0982L56.2373 17.5006C56.0374 17.3951 55.7914 17.4596 55.6661 17.6504C55.5409 17.8413 55.5765 18.0973 55.7488 18.2449L58.3575 20.479C58.7313 20.799 59.2956 20.717 59.5672 20.303Z" fill="black"/>
<path d="M57.1462 15.9222C57.1462 18.7421 54.9003 21.0281 52.1299 21.0281C49.3595 21.0281 47.1137 18.7421 47.1137 15.9222C47.1137 13.1023 49.3595 10.8163 52.1299 10.8163C54.9003 10.8163 57.1462 13.1023 57.1462 15.9222Z" fill="white"/>
<path fill-rule="evenodd" clip-rule="evenodd" d="M52.1299 11.0048C49.4608 11.0048 47.2981 13.207 47.2981 15.9222C47.2981 18.6374 49.4608 20.8396 52.1299 20.8396C54.7991 20.8396 56.9617 18.6374 56.9617 15.9222C56.9617 13.207 54.7991 11.0048 52.1299 11.0048ZM46.9292 15.9222C46.9292 12.9976 49.2583 10.6279 52.1299 10.6279C55.0016 10.6279 57.3307 12.9976 57.3307 15.9222C57.3307 18.8468 55.0016 21.2165 52.1299 21.2165C49.2583 21.2165 46.9292 18.8468 46.9292 15.9222Z" fill="black"/>
<path d="M55.8085 15.9224C55.8085 17.9903 54.1615 19.6667 52.1299 19.6667C50.0982 19.6667 48.4513 17.9903 48.4513 15.9224C48.4513 13.8545 50.0982 12.1781 52.1299 12.1781C54.1615 12.1781 55.8085 13.8545 55.8085 15.9224Z" fill="white"/>
<path fill-rule="evenodd" clip-rule="evenodd" d="M52.1299 12.3665C50.1995 12.3665 48.6357 13.9591 48.6357 15.9224C48.6357 17.8856 50.1995 19.4783 52.1299 19.4783C54.0602 19.4783 55.624 17.8856 55.624 15.9224C55.624 13.9591 54.0602 12.3665 52.1299 12.3665ZM48.2668 15.9224C48.2668 13.7498 49.997 11.9897 52.1299 11.9897C54.2628 11.9897 55.9929 13.7498 55.9929 15.9224C55.9929 18.095 54.2628 19.8551 52.1299 19.8551C49.997 19.8551 48.2668 18.095 48.2668 15.9224Z" fill="black"/>
</svg>
