<svg width="22" height="22" viewBox="0 0 22 22" fill="none" xmlns="http://www.w3.org/2000/svg">
<mask id="mask0_1365_3450" style="mask-type:alpha" maskUnits="userSpaceOnUse" x="0" y="0" width="22" height="22">
<rect width="22" height="22" fill="#C4C4C4"/>
</mask>
<g mask="url(#mask0_1365_3450)">
<path d="M10.9982 21.0307C16.5373 21.0307 21.0272 16.5396 21.0272 11C21.0272 5.46036 16.5373 0.969251 10.9982 0.969251C5.45918 0.969251 0.969251 5.46036 0.969251 11C0.969251 16.5396 5.45918 21.0307 10.9982 21.0307Z" fill="#C23631"/>
<path d="M10.9982 21.0307C16.5373 21.0307 21.0272 16.5396 21.0272 11C21.0272 5.46036 16.5373 0.969251 10.9982 0.969251C5.45918 0.969251 0.969251 5.46036 0.969251 11C0.969251 16.5396 5.45918 21.0307 10.9982 21.0307Z" stroke="#F3BB1C" stroke-width="2.0615"/>
<path d="M10.9982 21.0307C16.5373 21.0307 21.0272 16.5396 21.0272 11C21.0272 5.46036 16.5373 0.969251 10.9982 0.969251C5.45918 0.969251 0.969251 5.46036 0.969251 11C0.969251 16.5396 5.45918 21.0307 10.9982 21.0307Z" stroke="white" stroke-opacity="0.5" stroke-width="2.0615"/>
<path d="M15.4625 6.51885L11.4818 16.3752H9.82541L5.84467 6.51885H7.317C7.47605 6.51885 7.60556 6.55747 7.70553 6.63472C7.8055 6.71197 7.88048 6.81195 7.93047 6.93464L10.2548 12.9466C10.3321 13.142 10.4048 13.3579 10.473 13.5942C10.5457 13.8259 10.6138 14.0691 10.6774 14.3235C10.732 14.0691 10.7911 13.8259 10.8547 13.5942C10.9183 13.3579 10.9887 13.142 11.066 12.9466L13.3767 6.93464C13.4131 6.83012 13.4835 6.7347 13.588 6.64836C13.6971 6.56202 13.8289 6.51885 13.9834 6.51885H15.4625Z" fill="#F9DD8D"/>
</g>
</svg>
