<svg width="8" height="8" viewBox="0 0 8 8" fill="none" xmlns="http://www.w3.org/2000/svg">
<path d="M1.91661 7.11801C2.53326 7.53004 3.25823 7.74997 3.99986 7.75C4.99408 7.74878 5.94724 7.35329 6.65026 6.65026C7.35333 5.9472 7.74882 4.99398 7.75 3.99971C7.74994 3.25813 7.53001 2.53322 7.11801 1.91661C6.70596 1.29993 6.12029 0.819283 5.43506 0.535454C4.74984 0.251625 3.99584 0.177362 3.26841 0.322057C2.54098 0.466752 1.8728 0.823904 1.34835 1.34835C0.823904 1.8728 0.466752 2.54098 0.322057 3.26841C0.177362 3.99584 0.251625 4.74984 0.535453 5.43506C0.819282 6.12029 1.29993 6.70596 1.91661 7.11801Z" fill="white" stroke="#135DCD" stroke-width="0.5"/>
<path d="M5.72874 4.27126H4.27126V5.72878C4.27124 5.80072 4.24266 5.8697 4.19179 5.92056C4.14092 5.97143 4.07193 6 4 6C3.92807 6 3.85908 5.97143 3.80821 5.92056C3.75734 5.8697 3.72876 5.80072 3.72874 5.72878V4.27126H2.27126C2.19931 4.27126 2.13032 4.24268 2.07945 4.19181C2.02858 4.14094 2 4.07194 2 4C2 3.92806 2.02858 3.85906 2.07945 3.80819C2.13032 3.75732 2.19931 3.72874 2.27126 3.72874H3.72874V2.27122C3.72876 2.19928 3.75734 2.1303 3.80821 2.07944C3.85908 2.02857 3.92807 2 4 2C4.07193 2 4.14092 2.02857 4.19179 2.07944C4.24266 2.1303 4.27124 2.19928 4.27126 2.27122V3.72874H5.72874C5.80069 3.72874 5.86968 3.75732 5.92055 3.80819C5.97142 3.85906 6 3.92806 6 4C6 4.07194 5.97142 4.14094 5.92055 4.19181C5.86968 4.24268 5.80069 4.27126 5.72874 4.27126Z" fill="#135DCD" stroke="#135DCD" stroke-width="0.2"/>
</svg>
